HIERARCHY
ROOT Hips
{
	OFFSET 0.000000 0.000000 0.000000
	CHANNELS 6 Xposition Yposition Zposition Zrotation Yrotation Xrotation 
	JOINT LHipJoint
	{
		OFFSET 0.000000 0.000000 0.000000
		CHANNELS 3 Zrotation Yrotation Xrotation
		JOINT LeftUpLeg
		{
			OFFSET 1.363060 -1.794630 0.839290
			CHANNELS 3 Zrotation Yrotation Xrotation
			JOINT LeftLeg
			{
				OFFSET 2.448110 -6.726130 0.000000
				CHANNELS 3 Zrotation Yrotation Xrotation
				JOINT LeftFoot
				{
					OFFSET 2.562200 -7.039590 0.000000
					CHANNELS 3 Zrotation Yrotation Xrotation
					JOINT LeftToeBase
					{
						OFFSET 0.157640 -0.433110 2.322550
						CHANNELS 3 Zrotation Yrotation Xrotation
						End Site
						{
							OFFSET 0.000000 0.000000 0.000000
						}
					}
				}
			}
		}
	}
	JOINT RHipJoint
	{
		OFFSET 0.000000 0.000000 0.000000
		CHANNELS 3 Zrotation Yrotation Xrotation
		JOINT RightUpLeg
		{
			OFFSET -1.305520 -1.794630 0.839290
			CHANNELS 3 Zrotation Yrotation Xrotation
			JOINT RightLeg
			{
				OFFSET -2.542530 -6.985550 0.000000
				CHANNELS 3 Zrotation Yrotation Xrotation
				JOINT RightFoot
				{
					OFFSET -2.568260 -7.056230 0.000000
					CHANNELS 3 Zrotation Yrotation Xrotation
					JOINT RightToeBase
					{
						OFFSET -0.164730 -0.452590 2.363150
						CHANNELS 3 Zrotation Yrotation Xrotation
						End Site
						{
							OFFSET 0.000000 0.000000 0.000000
						}
					}
				}
			}
		}
	}
	JOINT LowerBack
	{
		OFFSET 0.000000 0.000000 0.000000
		CHANNELS 3 Zrotation Yrotation Xrotation
		JOINT Spine
		{
			OFFSET 0.028270 2.035590 -0.193380
			CHANNELS 3 Zrotation Yrotation Xrotation
			JOINT Spine1
			{
				OFFSET 0.056720 2.048850 -0.042750
				CHANNELS 3 Zrotation Yrotation Xrotation
				JOINT Neck
				{
					OFFSET 0.000000 0.000000 0.000000
					CHANNELS 3 Zrotation Yrotation Xrotation
					JOINT Neck1
					{
						OFFSET -0.054170 1.746240 0.172020
						CHANNELS 3 Zrotation Yrotation Xrotation
						JOINT Head
						{
							OFFSET 0.104070 1.761360 -0.123970
							CHANNELS 3 Zrotation Yrotation Xrotation
							End Site
							{
								OFFSET 0.000000 0.000000 0.000000
							}
						}
					}
				}
				JOINT LeftShoulder
				{
					OFFSET 0.000000 0.000000 0.000000
					CHANNELS 3 Zrotation Yrotation Xrotation
					JOINT LeftArm
					{
						OFFSET 3.362410 1.200890 -0.311210
						CHANNELS 3 Zrotation Yrotation Xrotation
						JOINT LeftForeArm
						{
							OFFSET 4.983000 -0.000000 -0.000000
							CHANNELS 3 Zrotation Yrotation Xrotation
							JOINT LeftHand
							{
								OFFSET 3.483560 -0.000000 -0.000000
								CHANNELS 3 Zrotation Yrotation Xrotation
								JOINT LeftFingerBase
								{
									OFFSET 0.000000 0.000000 0.000000
									CHANNELS 3 Zrotation Yrotation Xrotation
									JOINT LeftHandIndex1
									{
										OFFSET 0.715260 -0.000000 -0.000000
										CHANNELS 3 Zrotation Yrotation Xrotation
										End Site
										{
											OFFSET 0.000000 0.000000 0.000000
										}
									}
								}
								JOINT LThumb
								{
									OFFSET 0.000000 0.000000 0.000000
									CHANNELS 3 Zrotation Yrotation Xrotation
									End Site
									{
										OFFSET 0.000000 0.000000 0.000000
									}
								}
							}
						}
					}
				}
				JOINT RightShoulder
				{
					OFFSET 0.000000 0.000000 0.000000
					CHANNELS 3 Zrotation Yrotation Xrotation
					JOINT RightArm
					{
						OFFSET -3.136600 1.374050 -0.404650
						CHANNELS 3 Zrotation Yrotation Xrotation
						JOINT RightForeArm
						{
							OFFSET -5.241900 -0.000000 -0.000000
							CHANNELS 3 Zrotation Yrotation Xrotation
							JOINT RightHand
							{
								OFFSET -3.444170 -0.000000 -0.000000
								CHANNELS 3 Zrotation Yrotation Xrotation
								JOINT RightFingerBase
								{
									OFFSET 0.000000 0.000000 0.000000
									CHANNELS 3 Zrotation Yrotation Xrotation
									JOINT RightHandIndex1
									{
										OFFSET -0.622530 -0.000000 -0.000000
										CHANNELS 3 Zrotation Yrotation Xrotation
										End Site
										{
											OFFSET 0.000000 0.000000 0.000000
										}
									}
								}
								JOINT RThumb
								{
									OFFSET 0.000000 0.000000 0.000000
									CHANNELS 3 Zrotation Yrotation Xrotation
									End Site
									{
										OFFSET 0.000000 0.000000 0.000000
									}
								}
							}
						}
					}
				}
			}
		}
	}
}
MOTION
Frames: 6
Frame Time: 0.008333
-32.787956 17.745026 -2.214874 37.611650 85.166851 47.218218 -10.288803 -5.831494 -1.091473 -9.501658 -3.658458 -24.674134 1.551143 11.017688 31.653092 3.902798 -4.941525 10.555729 4.338200 12.597300 37.879200 7.666466 3.017353 1.337758 7.359235 2.881396 -10.622984 -9.968570 -18.751760 60.473756 -1.954221 3.437809 21.318261 -0.246100 -3.192000 8.813800 -6.873293 0.843379 -5.306763 -0.825857 1.182936 -3.751109 2.662608 1.037027 2.044707 -1.093027 0.543208 -7.412075 6.652479 -0.288564 4.323113 -0.734200 -0.031100 3.057100 -9.546736 -4.475866 -0.216310 -75.262370 -2.699914 -16.170536 -0.872943 -3.956052 -0.427732 -2.944063 -2.662970 23.464370 16.935714 37.339663 12.356500 -7.125000 0.000000 0.000000 -26.613000 70.578300 -16.628600 14.784011 4.909322 -0.387078 74.478159 8.745323 -126.795874 0.852032 -3.819728 -1.089418 -4.874874 3.632977 152.573015 -29.428013 31.522394 -20.622100 7.125000 0.000000 0.000000 0.910000 11.424600 1.072300 
-32.558039 17.765426 -2.228060 37.691329 85.160222 46.867792 -10.413787 -5.668530 -0.809256 -9.675533 -3.688703 -23.452151 1.491199 10.986986 31.393418 3.705842 -4.336292 9.905196 3.310700 11.181700 32.895200 7.656452 3.098772 1.115301 7.327320 3.120682 -11.549928 -10.264436 -18.882768 61.286145 -1.754339 3.090860 19.430429 -0.389200 -4.005900 11.093200 -7.156480 0.823216 -4.852079 -0.672280 1.091229 -3.725818 3.367456 0.967009 1.864047 -1.268900 0.604961 -7.268537 6.427571 -0.206715 4.168565 -0.857200 -0.018600 2.963200 -9.421843 -4.523932 -0.203212 -76.151062 -3.636121 -16.217227 -0.372393 -4.702629 -0.483999 -3.012881 -2.406758 24.376726 17.996770 35.615155 12.669000 -7.125000 0.000000 0.000000 -22.238700 69.289900 -13.168000 14.878089 4.858570 -0.419202 73.799759 7.688221 -126.681636 0.575670 -3.487366 -1.041441 -4.931208 3.585588 151.851231 -29.069088 31.618098 -20.406000 7.125000 0.000000 0.000000 1.123400 11.420100 1.323800 
-32.333981 17.776809 -2.242149 37.620957 85.356714 46.337652 -10.472077 -5.516750 -0.543683 -9.774005 -3.664116 -22.283490 1.475154 10.998362 31.295630 3.558229 -3.886442 9.072501 2.249200 9.366900 26.950000 7.678200 3.176252 0.914453 7.410924 3.209901 -12.548144 -10.491348 -18.988694 61.947560 -1.652174 3.106780 17.879748 -0.318100 -3.625300 10.024700 -6.557173 0.782127 -4.414575 -0.794780 1.024766 -3.658479 2.592403 0.893849 1.849564 -0.920945 0.701052 -7.223462 6.557011 -0.121985 4.018652 -0.821300 0.027700 2.896200 -9.497481 -4.576439 -0.170995 -75.607322 -4.521102 -16.257365 0.164045 -5.479089 -0.546913 -3.016485 -2.241599 25.211331 17.892743 34.040313 12.163000 -7.125000 0.000000 0.000000 -20.124700 67.743100 -11.180900 14.833647 4.822834 -0.407055 74.365010 7.103017 -126.596322 0.069159 -2.837252 -1.004022 -5.001519 3.538195 151.411504 -29.000923 31.491067 -20.331100 7.125000 0.000000 0.000000 1.106900 11.282000 1.302300 
-32.114996 17.783910 -2.260632 38.364550 85.735725 46.637802 -10.541065 -5.336987 -0.304188 -9.764005 -4.076179 -20.965784 1.441023 10.991408 31.122531 3.232759 -3.006532 8.227062 1.193400 6.931800 19.513600 7.701951 3.262440 0.731525 7.539304 2.973342 -13.692179 -10.700181 -19.082362 62.570597 -1.585587 3.361821 15.783701 -0.225900 -3.059600 8.444700 -5.955239 0.615178 -3.954151 -0.817541 0.766871 -3.600643 2.127546 0.727191 1.814116 -0.736943 0.842763 -7.156395 6.532983 0.044580 4.038741 -0.842800 0.114900 2.890900 -9.513384 -4.625415 -0.140556 -75.472632 -5.564191 -16.495018 0.749692 -6.292192 -0.633023 -2.903021 -2.202982 26.125872 16.123149 33.418333 10.775400 -7.125000 0.000000 0.000000 -21.615600 66.597700 -11.478100 14.821297 4.794871 -0.396631 74.473037 6.410013 -126.304703 -0.363489 -2.299255 -0.973601 -5.052967 3.519311 151.077545 -28.849100 31.550816 -20.267500 7.125000 0.000000 0.000000 1.193600 11.316700 1.404900 
-31.894320 17.789883 -2.272128 39.135068 86.045204 47.057166 -10.593774 -5.170371 -0.066392 -9.778835 -4.292864 -19.799811 1.391294 10.965337 30.896387 3.011823 -2.403334 7.464419 0.564800 4.813300 13.376800 7.725835 3.367252 0.530760 7.674064 2.797809 -14.942138 -10.863631 -19.141289 63.044084 -1.553147 3.677281 13.431852 -0.132300 -2.344400 6.458600 -5.588272 0.412497 -3.664619 -0.786279 0.478291 -3.533116 1.976507 0.539723 1.917251 -0.605794 0.872419 -7.264588 6.474711 0.077577 4.183473 -0.909200 0.141500 2.970000 -9.465106 -4.668021 -0.136206 -75.630436 -6.814245 -10.788601 1.289354 -7.498958 -0.765893 -2.673134 -2.514316 21.111023 15.078594 33.735126 10.174900 -7.125000 0.000000 0.000000 -23.330100 66.620900 -12.441500 14.831359 4.781415 -0.380625 74.375195 5.757558 -125.932167 -0.726805 -1.840814 -0.946830 -5.092000 3.502669 150.785345 -28.645320 31.613653 -20.159600 7.125000 0.000000 0.000000 1.311400 11.331700 1.543900 
-31.671277 17.792024 -2.279679 42.507733 86.026526 50.197487 -10.639018 -5.013313 0.166575 -10.166178 -4.334244 -18.848837 1.345394 10.961893 30.715757 2.682802 -1.580497 6.534659 0.121700 2.249200 6.194900 7.760068 3.485264 0.323951 7.381729 2.777003 -16.297082 -10.956114 -19.141070 63.279679 -1.594735 4.123864 11.524273 -0.156700 -2.550900 7.030700 -6.089918 0.243209 -3.303124 -0.629213 0.208273 -3.543235 2.791671 0.379414 1.758718 -0.897820 0.879730 -7.432676 6.300545 0.126549 4.339523 -1.010200 0.161900 3.092200 -9.309784 -4.703871 -0.184971 -76.524313 -7.802495 -5.390530 1.915135 -8.780625 -0.925652 -2.484989 -2.748596 16.266980 15.065357 34.064364 10.263400 -7.125000 0.000000 0.000000 -23.743300 66.934100 -12.841000 14.916342 4.782991 -0.361538 73.446609 5.049836 -125.608310 -1.192851 -1.259564 -0.918294 -5.095092 3.500153 150.591285 -28.068634 31.485176 -19.679700 7.125000 0.000000 0.000000 1.593100 11.027900 1.869100 
